Coordinates
version=1
nRows=19
nColumns=24
inDegrees=yes

Units are S.I. units (second, meters, Newtons, ...)
Angles are in degrees.

endheader
time	pelvis_tilt	pelvis_list	pelvis_rotation	pelvis_tx	pelvis_ty	pelvis_tz	hip_flexion_r	hip_adduction_r	hip_rotation_r	knee_angle_r	ankle_angle_r	subtalar_angle_r	mtp_angle_r	hip_flexion_l	hip_adduction_l	hip_rotation_l	knee_angle_l	ankle_angle_l	subtalar_angle_l	mtp_angle_l	lumbar_extension	lumbar_bending	lumbar_rotation
      0.88000000	     -2.41052865	     -2.01860546	      3.64343665	     -0.01136498	      0.97660105	      0.04291032	     -7.65145894	      6.17597995	    -18.78566714	     -8.63101236	     19.67408023	      0.00000000	      0.00000000	     25.13562527	     -1.32165322	    -11.55031201	     -2.88639857	      6.32636898	      0.00000000	      0.00000000	    -17.20570398	      1.92476376	     -0.40422270
      0.89000000	     -2.38450796	     -2.01598829	      3.37256780	     -0.01031381	      0.97550268	      0.04218155	     -8.15505708	      6.06028635	    -18.63206589	     -8.82114264	     19.74329984	      0.00000000	      0.00000000	     25.26981061	     -1.28740341	    -11.52121229	     -3.90821108	      6.41483271	      0.00000000	      0.00000000	    -17.28098455	      1.84848470	     -0.33589100
      0.90000000	     -2.26865708	     -2.03399867	      3.11186665	     -0.00904609	      0.97450842	      0.04140904	     -8.71226422	      5.95881654	    -18.35551835	     -9.13452887	     19.87318767	      0.00000000	      0.00000000	     25.38681748	     -1.29626650	    -11.30152648	     -5.27393728	      6.77374482	      0.00000000	      0.00000000	    -17.42491680	      1.79286269	     -0.29024319
      0.91000000	     -2.21370982	     -1.97699610	      2.74270431	     -0.00744766	      0.97356980	      0.04068872	     -9.22968643	      5.75931059	    -18.19202281	     -9.40482633	     19.87942706	      0.00000000	      0.00000000	     25.39756154	     -1.25899028	    -10.98059673	     -6.43161146	      6.58241963	      0.00000000	      0.00000000	    -17.43730330	      1.61485501	     -0.18524221
      0.92000000	     -2.00245424	     -1.97135844	      2.48619436	     -0.00571596	      0.97287709	      0.03980245	     -9.82304749	      5.60369455	    -17.86070892	     -9.91511413	     19.99247441	      0.00000000	      0.00000000	     25.34808625	     -1.25797272	    -10.45387113	     -7.88078225	      6.70642435	      0.00000000	      0.00000000	    -17.60276510	      1.52470141	     -0.22974675
      0.93000000	     -1.92044883	     -1.86520650	      2.13574691	     -0.00366125	      0.97226051	      0.03898333	    -10.31927030	      5.31937024	    -17.64833670	    -10.32770370	     19.87061757	      0.00000000	      0.00000000	     25.23832210	     -1.17734602	    -10.00028068	     -8.99296402	      6.28726052	      0.00000000	      0.00000000	    -17.56640854	      1.27467052	     -0.19473163
      0.94000000	     -1.77257030	     -1.74354314	      1.85602523	     -0.00150428	      0.97192044	      0.03804098	    -10.80304517	      5.00704993	    -17.38281046	    -10.92512516	     19.70022569	      0.00000000	      0.00000000	     25.05323507	     -1.07012376	     -9.49668643	    -10.09859578	      5.84182276	      0.00000000	      0.00000000	    -17.57661758	      1.03194194	     -0.25894403
      0.95000000	     -1.63356215	     -1.60175221	      1.59497095	      0.00074883	      0.97182838	      0.03706571	    -11.23049601	      4.65640617	    -17.14037610	    -11.60241636	     19.43261809	      0.00000000	      0.00000000	     24.81973434	     -0.95825727	     -9.00960563	    -11.11120075	      5.37619304	      0.00000000	      0.00000000	    -17.56123347	      0.75810596	     -0.37108298
      0.96000000	     -1.45565345	     -1.42783939	      1.42050193	      0.00301632	      0.97207974	      0.03595566	    -11.59582402	      4.25589319	    -16.90017261	    -12.48301528	     19.04064344	      0.00000000	      0.00000000	     24.53113477	     -0.80496290	     -8.54676583	    -12.08284599	      4.91328522	      0.00000000	      0.00000000	    -17.59587747	      0.47051980	     -0.57385110
      0.97000000	     -1.27532708	     -1.22788882	      1.29769750	      0.00530208	      0.97263173	      0.03472922	    -11.88069996	      3.80763349	    -16.70782447	    -13.50060478	     18.50431907	      0.00000000	      0.00000000	     24.20495919	     -0.62897578	     -8.16403209	    -12.98264494	      4.49511826	      0.00000000	      0.00000000	    -17.63404901	      0.16588345	     -0.81481886
      0.98000000	     -1.09716900	     -1.01418417	      1.22382325	      0.00756374	      0.97347113	      0.03342094	    -12.07392879	      3.32490900	    -16.55943325	    -14.65660442	     17.81217897	      0.00000000	      0.00000000	     23.84943417	     -0.44789246	     -7.88921652	    -13.81860674	      4.16232205	      0.00000000	      0.00000000	    -17.68175617	     -0.13887794	     -1.11227722
      0.99000000	     -0.88867479	     -0.75362679	      1.14647051	      0.00975478	      0.97463648	      0.03193605	    -12.14488263	      2.72528357	    -16.47921575	    -16.08737205	     16.90777078	      0.00000000	      0.00000000	     23.42554886	     -0.22208260	     -7.68583719	    -14.60565679	      3.92933834	      0.00000000	      0.00000000	    -17.79251228	     -0.48213397	     -1.34062730
      1.00000000	     -0.68235409	     -0.52813949	      1.18501947	      0.01191945	      0.97598164	      0.03033175	    -12.13769601	      2.17150755	    -16.36942747	    -17.62349318	     15.84063801	      0.00000000	      0.00000000	     23.00688320	     -0.01047520	     -7.64986112	    -15.38896740	      3.81805289	      0.00000000	      0.00000000	    -17.91472444	     -0.75819495	     -1.70321625
      1.01000000	     -0.45094524	     -0.29902868	      1.18586288	      0.01400536	      0.97752661	      0.02857724	    -11.98868021	      1.53343252	    -16.31005366	    -19.43815065	     14.53479326	      0.00000000	      0.00000000	     22.52734127	      0.20339970	     -7.67321820	    -16.13234309	      3.86416254	      0.00000000	      0.00000000	    -18.08441442	     -1.02145395	     -1.92514677
      1.02000000	     -0.24680957	     -0.03768276	      1.06879902	      0.01607288	      0.97915545	      0.02685053	    -11.64760996	      0.78047791	    -16.10665359	    -21.51944266	     13.05358318	      0.00000000	      0.00000000	     21.98905615	      0.43011039	     -7.90992710	    -16.74033040	      4.12299854	      0.00000000	      0.00000000	    -18.23328251	     -1.33845453	     -2.00724820
      1.03000000	     -0.06280942	      0.16240629	      0.94027617	      0.01802846	      0.98073580	      0.02512986	    -11.10669550	      0.06167215	    -15.75981941	    -23.88150937	     11.57219699	      0.00000000	      0.00000000	     21.44691746	      0.59376665	     -8.37259519	    -17.28646428	      4.45999493	      0.00000000	      0.00000000	    -18.35815010	     -1.57838242	     -2.06611832
      1.04000000	      0.21533456	      0.26582015	      0.96917755	      0.01991531	      0.98241902	      0.02314468	    -10.62078982	     -0.54029737	    -15.61397312	    -26.26726110	      9.93955571	      0.00000000	      0.00000000	     20.84236369	      0.74265482	     -8.53491704	    -17.89284420	      4.87407290	      0.00000000	      0.00000000	    -18.60651514	     -1.65096111	     -2.23397092
      1.05000000	      0.44955996	      0.37133249	      0.87711331	      0.02171037	      0.98396201	      0.02134800	     -9.91904613	     -1.18000225	    -15.26501045	    -28.89900926	      8.32507579	      0.00000000	      0.00000000	     20.20547725	      0.87558610	     -8.89562602	    -18.35345363	      5.45560853	      0.00000000	      0.00000000	    -18.79575712	     -1.76256047	     -2.24632541
      1.06000000	      0.66914499	      0.41157873	      0.72762403	      0.02331734	      0.98537445	      0.01950271	     -9.05273080	     -1.78867778	    -14.87217705	    -31.72652027	      6.92311426	      0.00000000	      0.00000000	     19.54913184	      0.96019586	     -9.26878458	    -18.72421118	      6.05057592	      0.00000000	      0.00000000	    -18.97242705	     -1.76697664	     -2.28440675
